HIERARCHY
ROOT Hips
{
	OFFSET 0.000000 0.000000 0.000000
	CHANNELS 6 Xposition Yposition Zposition Xrotation Yrotation Zrotation
	JOINT LeftUpLeg_virtual
	{
		OFFSET 0.000000 0.000000 0.000000
		CHANNELS 3 Xrotation Yrotation Zrotation
		JOINT LeftUpLeg
		{
			OFFSET 15.427100 -6.655098 0.678600
			CHANNELS 3 Xrotation Yrotation Zrotation
			JOINT LeftLeg
			{
				OFFSET 4.081073 -39.591068 13.024000
				CHANNELS 3 Xrotation Yrotation Zrotation
				JOINT LeftFoot
				{
					OFFSET -4.081074 -37.707932 -15.979700
					CHANNELS 3 Xrotation Yrotation Zrotation
					JOINT LeftToeBase
					{
						OFFSET 5.346399 -15.068900 20.645000
						CHANNELS 3 Xrotation Yrotation Zrotation
						JOINT LeftToe_End
						{
							OFFSET 2.754700 0.931300 11.300900
							CHANNELS 3 Xrotation Yrotation Zrotation
							End Site
							{
								OFFSET 0 0 0
							}
						}
					}
				}
			}
		}
	}
	JOINT RightUpLeg_virtual
	{
		OFFSET 0.000000 0.000000 0.000000
		CHANNELS 3 Xrotation Yrotation Zrotation
		JOINT RightUpLeg
		{
			OFFSET -15.569500 -6.655098 0.678600
			CHANNELS 3 Xrotation Yrotation Zrotation
			JOINT RightLeg
			{
				OFFSET -4.081825 -39.591045 13.023800
				CHANNELS 3 Xrotation Yrotation Zrotation
				JOINT RightFoot
				{
					OFFSET 4.081824 -37.707954 -15.979600
					CHANNELS 3 Xrotation Yrotation Zrotation
					JOINT RightToeBase
					{
						OFFSET -5.346400 -15.068900 20.645000
						CHANNELS 3 Xrotation Yrotation Zrotation
						JOINT RightToe_End
						{
							OFFSET -2.754700 0.931300 11.300900
							CHANNELS 3 Xrotation Yrotation Zrotation
							End Site
							{
								OFFSET 0 0 0
							}
						}
					}
				}
			}
		}
	}
	JOINT Spine_virtual
	{
		OFFSET 0.000000 0.000000 0.000000
		CHANNELS 3 Xrotation Yrotation Zrotation
		JOINT Spine
		{
			OFFSET -0.279200 12.230698 -2.892100
			CHANNELS 3 Xrotation Yrotation Zrotation
			JOINT Spine1
			{
				OFFSET -0.232667 10.192268 -1.242267
				CHANNELS 3 Xrotation Yrotation Zrotation
				JOINT Spine1_split
				{
					OFFSET -0.232667 10.192268 -1.242267
					CHANNELS 3 Xrotation Yrotation Zrotation
					JOINT Spine2
					{
						OFFSET -0.232667 10.192268 -1.242267
						CHANNELS 3 Xrotation Yrotation Zrotation
						JOINT Neck_virtual
						{
							OFFSET 0.000000 0.000000 0.000000
							CHANNELS 3 Xrotation Yrotation Zrotation
							JOINT Neck
							{
								OFFSET -0.418800 17.814194 8.416900
								CHANNELS 3 Xrotation Yrotation Zrotation
								JOINT Head
								{
									OFFSET 0.000000 7.031097 3.806800
									CHANNELS 3 Xrotation Yrotation Zrotation
									JOINT HeadTop_End
									{
										OFFSET 0.000000 24.646606 12.978600
										CHANNELS 3 Xrotation Yrotation Zrotation
										End Site
										{
											OFFSET 0 0 0
										}
									}
								}
							}
						}
						JOINT LeftShoulder_virtual
						{
							OFFSET 0.000000 0.000000 0.000000
							CHANNELS 3 Xrotation Yrotation Zrotation
							JOINT LeftShoulder
							{
								OFFSET 8.476499 7.247704 -3.868750
								CHANNELS 3 Xrotation Yrotation Zrotation
								JOINT LeftShoulder_split
								{
									OFFSET 8.476499 7.247704 -3.868750
									CHANNELS 3 Xrotation Yrotation Zrotation
									JOINT LeftArm
									{
										OFFSET 9.308998 -2.777710 0.208600
										CHANNELS 3 Xrotation Yrotation Zrotation
										JOINT LeftForeArm
										{
											OFFSET 29.972298 0.000000 0.000000
											CHANNELS 3 Xrotation Yrotation Zrotation
											JOINT LeftHand
											{
												OFFSET 26.026505 0.000000 0.000000
												CHANNELS 3 Xrotation Yrotation Zrotation
												End Site
												{
													OFFSET 0 0 0
												}
											}
										}
									}
								}
							}
						}
						JOINT RightShoulder_virtual
						{
							OFFSET 0.000000 0.000000 0.000000
							CHANNELS 3 Xrotation Yrotation Zrotation
							JOINT RightShoulder
							{
								OFFSET -7.570500 7.247704 -3.868750
								CHANNELS 3 Xrotation Yrotation Zrotation
								JOINT RightShoulder_split
								{
									OFFSET -7.570500 7.247704 -3.868750
									CHANNELS 3 Xrotation Yrotation Zrotation
									JOINT RightArm
									{
										OFFSET -9.308998 -2.777710 0.208500
										CHANNELS 3 Xrotation Yrotation Zrotation
										JOINT RightForeArm
										{
											OFFSET -29.972300 0.000000 0.000000
											CHANNELS 3 Xrotation Yrotation Zrotation
											JOINT RightHand
											{
												OFFSET -26.026505 0.000000 0.000000
												CHANNELS 3 Xrotation Yrotation Zrotation
												End Site
												{
													OFFSET 0 0 0
												}
											}
										}
									}
								}
							}
						}
					}
				}
			}
		}
	}
}
MOTION
Frames: 11
Frame Time: 0.03333333
3.766283 79.910439 4.563595 0.000000 0.000000 0.000000 5.447215 -38.467072 4.991441 -56.273006 6.792782 19.281351 30.682931 -18.428866 -4.584080 4.898070 -9.490383 -13.084177 -8.896808 0.424687 -0.890277 0.000000 0.000000 0.000000 3.119574 -33.955971 4.630874 -20.908691 1.797253 -37.411664 24.397304 -4.484322 1.738578 -18.363138 -21.196478 29.314762 10.827856 -3.123555 3.603334 0.000000 0.000000 0.000000 1.200046 -35.140470 2.290186 22.634415 -1.621321 -6.399723 6.190330 -1.946634 1.232446 4.695810 -19.443559 6.787474 0.000000 0.000000 0.000000 7.043220 -0.910295 -0.822188 16.729220 11.125710 14.992385 -34.081777 27.081032 20.503219 0.000000 0.000000 0.000000 8.524268 -1.417252 0.033687 -1.122730 -12.639122 -19.696669 -2.171972 -1.943430 -2.114117 -38.890182 30.678396 -14.817344 3.973522 -17.465485 -4.801619 0.000000 0.000000 0.000000 6.554768 -1.204579 -0.269472 -0.340226 -13.692064 23.715383 -12.779386 -3.597683 0.821443 17.552635 15.499453 34.689465 4.835138 52.813031 9.234050 0.000000 0.000000 0.000000 
1.288104 80.898033 4.081398 0.000000 0.000000 0.000000 5.806720 -34.876449 5.310327 -55.502459 11.491569 19.179434 30.980519 -19.824240 -5.131963 8.441490 -10.610421 -11.480361 -10.325042 -0.044036 0.088009 0.000000 0.000000 0.000000 3.139905 -30.555527 5.238353 -17.604063 2.719211 -32.391428 30.115667 -5.799101 1.505910 -21.328420 -19.576816 24.603537 12.662699 -2.505660 4.459947 0.000000 0.000000 0.000000 0.483576 -31.900740 3.515129 20.452942 -1.455329 -6.937292 6.292462 -1.429664 1.507712 4.606237 -12.916291 6.305904 0.000000 0.000000 0.000000 5.869303 -0.615958 -0.575834 19.419497 10.465930 13.593235 -31.937534 25.491485 20.452370 0.000000 0.000000 0.000000 7.881250 -0.827583 0.109786 -0.575713 -9.992790 -19.752595 -1.071171 -0.997740 -1.020990 -42.056285 29.920976 -13.549186 2.431028 -24.469882 -5.460723 0.000000 0.000000 0.000000 6.136565 -0.780006 -0.197165 -1.384943 -11.030127 23.937434 -13.307089 0.225930 1.273100 15.958788 16.750865 35.819121 5.781321 52.315506 8.917830 0.000000 0.000000 0.000000 
-2.053234 82.451111 3.646633 0.000000 0.000000 0.000000 5.624536 -25.294516 6.262294 -52.808782 16.724256 15.936146 27.357483 -21.325592 -6.621924 16.515486 -13.266177 -9.413445 -11.173871 -0.802677 1.863182 0.000000 0.000000 0.000000 3.156652 -22.361628 6.604261 -12.030888 5.057276 -26.561043 38.795720 -3.726513 0.685867 -16.285905 -13.434389 27.262014 -6.755395 -2.011561 3.822176 0.000000 0.000000 0.000000 0.701830 -23.200623 5.759423 16.842377 -0.538607 -7.178188 5.349370 0.043344 2.350761 4.911852 -9.182550 4.375360 0.000000 0.000000 0.000000 3.783082 0.787119 0.414422 23.906099 9.475561 11.469142 -24.992147 21.524684 18.159981 0.000000 0.000000 0.000000 6.163313 0.954372 0.938436 0.063506 -6.160296 -18.871010 -0.122529 -0.060757 -0.128424 -40.261394 26.209026 -13.998783 4.113450 -34.537651 -3.325349 0.000000 0.000000 0.000000 4.816690 0.879303 0.679570 -2.113745 -8.186951 24.786827 -12.306439 2.079584 0.282069 14.193370 17.311681 35.216985 10.271793 50.191519 5.810587 0.000000 0.000000 0.000000 
-5.423896 83.937263 3.811047 0.000000 0.000000 0.000000 4.793046 -12.558661 7.563889 -48.038585 20.809329 9.840604 21.112122 -21.820101 -8.407953 26.577706 -14.981844 -5.512403 -13.682990 -1.821169 4.395350 0.000000 0.000000 0.000000 3.064786 -10.835740 8.148785 -3.652798 8.391995 -19.856413 45.114824 -0.377535 -1.389346 -8.800440 -3.982932 31.295223 -40.876445 -1.313067 3.143802 0.000000 0.000000 0.000000 0.880421 -11.087103 8.295973 12.413599 0.984486 -6.890963 3.532694 2.213988 3.464651 4.514460 -6.710996 2.140770 0.000000 0.000000 0.000000 1.159314 2.985370 1.850935 28.694390 8.665024 9.036492 -15.575275 15.677955 15.045911 0.000000 0.000000 0.000000 3.651173 3.496709 2.107321 0.501250 -1.879265 -17.264679 0.941582 1.109780 0.834598 -35.869551 18.765619 -15.317686 8.706795 -40.856952 1.871740 0.000000 0.000000 0.000000 2.793283 3.391765 1.987374 -2.527671 -5.707042 25.670658 -9.986955 1.570413 -1.079061 13.279347 16.403623 32.587826 16.571934 45.846603 1.403353 0.000000 0.000000 0.000000 
-8.291033 85.053848 4.030033 0.000000 0.000000 0.000000 3.373945 1.039015 9.285810 -41.470453 22.321197 1.460972 14.472239 -21.290512 -9.312135 34.082125 -13.903493 -0.288419 -17.652076 -2.848045 6.639194 0.000000 0.000000 0.000000 2.052556 1.660727 9.323506 6.112586 11.337228 -12.519979 46.550635 0.811512 -3.725745 -1.500330 5.224465 30.224256 -68.647349 -0.557244 3.762247 0.000000 0.000000 0.000000 0.571153 2.656214 10.515765 7.890632 2.825609 -5.941395 1.166921 4.677514 4.462386 1.545180 -5.470590 0.050119 0.000000 0.000000 0.000000 -1.226914 5.502983 3.252988 32.184459 8.066886 6.180966 -6.688892 8.387617 12.360798 0.000000 0.000000 0.000000 0.835023 6.259239 3.205226 0.655304 2.498322 -14.971032 1.991007 2.634572 1.202719 -31.901710 7.528320 -15.326075 12.239711 -39.912972 7.219600 0.000000 0.000000 0.000000 0.431107 6.208750 3.319975 -2.627874 -3.447271 26.267005 -6.956232 0.521240 -1.824458 13.467874 13.968004 28.926783 22.664523 39.717994 -2.610145 0.000000 0.000000 0.000000 
-10.519114 85.385307 4.330837 0.000000 0.000000 0.000000 1.152279 13.075112 11.139469 -34.732735 20.310438 -7.318029 9.791653 -20.194699 -8.550334 35.658782 -9.951726 5.375226 -19.161093 -3.119014 6.910484 0.000000 0.000000 0.000000 0.274076 12.881157 10.432334 14.019913 12.738791 -5.712715 42.973440 -0.651713 -4.628097 6.024231 11.423824 24.393643 -83.227836 -0.298845 5.420546 0.000000 0.000000 0.000000 -0.183202 15.007485 12.030247 4.085887 4.587844 -4.551238 -1.407642 7.060524 5.003680 -0.950964 -5.936139 -1.081498 0.000000 0.000000 0.000000 -2.913029 7.976362 4.175360 33.230117 8.131725 2.807896 -0.507867 0.662239 10.386001 0.000000 0.000000 0.000000 -1.708636 8.797938 3.888228 0.460655 6.545727 -12.130094 1.912975 4.521562 0.588068 -31.088794 -3.434472 -12.774299 10.396719 -31.837042 9.401522 0.000000 0.000000 0.000000 -1.767230 8.737521 4.209909 -2.468292 -1.331254 26.091750 -4.243501 0.820711 -2.121102 14.589074 10.785212 25.156912 27.211002 32.850379 -5.165156 0.000000 0.000000 0.000000 
-12.238661 85.136818 4.407337 0.000000 0.000000 0.000000 -1.580957 23.113278 12.930574 -29.642782 15.706519 -14.765943 7.946084 -19.613102 -6.618640 31.557776 -5.020266 10.599031 -16.436857 -2.523280 4.960049 0.000000 0.000000 0.000000 -1.940863 23.177902 11.545549 19.326854 12.396758 -0.952538 37.473983 -2.854040 -3.900550 13.188716 14.595416 17.926154 -90.686191 0.271431 6.973958 0.000000 0.000000 0.000000 -0.991899 25.558363 12.741796 1.499613 6.140673 -3.076497 -3.506854 9.254082 5.033436 -1.273357 -6.196249 0.513956 0.000000 0.000000 0.000000 -3.899127 10.156467 4.462093 31.518075 9.147032 -0.834906 2.051627 -6.087669 8.690156 0.000000 0.000000 0.000000 -3.643861 10.937148 4.018974 -0.033709 10.097675 -9.095767 2.369591 6.203783 0.322542 -33.548731 -10.250007 -8.680179 3.478727 -21.534331 9.062461 0.000000 0.000000 0.000000 -3.345609 10.810024 4.317976 -2.113452 0.903952 24.897035 -3.986983 1.456016 -1.500111 16.063145 7.599423 21.413867 29.756399 26.861524 -6.134832 0.000000 0.000000 0.000000 
-13.600710 84.820671 4.288063 0.000000 0.000000 0.000000 -4.871096 30.844383 14.764214 -27.597545 9.557637 -19.937343 9.010485 -21.405907 -4.104832 26.344134 -2.028959 12.204290 -12.330424 -1.646603 1.978104 0.000000 0.000000 0.000000 -4.817971 31.583816 12.846991 22.018283 11.219008 1.277229 33.184956 -4.118456 -2.353601 19.814387 16.387912 14.355657 -95.443342 2.257995 7.660692 0.000000 0.000000 0.000000 -1.848345 33.941385 12.785184 0.558839 7.173591 -1.940671 -4.692567 11.037206 4.688300 -0.747914 -6.833182 2.559712 0.000000 0.000000 0.000000 -4.123935 11.762761 4.227412 27.803613 11.066477 -4.639356 0.735523 -11.069404 6.811175 0.000000 0.000000 0.000000 -4.738491 12.573016 3.782643 -0.529863 13.087253 -6.462214 1.833976 6.857026 -0.402123 -37.551489 -10.321777 -3.545657 -5.711985 -15.044955 7.690414 0.000000 0.000000 0.000000 -4.016154 12.342008 3.811114 -1.582890 3.429632 22.713372 -5.578502 1.750317 -0.217771 16.710322 5.301281 17.229381 30.520273 23.158234 -5.986228 0.000000 0.000000 0.000000 
-14.524081 84.732407 3.777870 0.000000 0.000000 0.000000 -8.382375 35.608860 16.218312 -28.180281 3.921563 -22.697641 12.038605 -24.892855 -1.509081 24.590506 -1.612722 9.118279 -10.420785 -0.942405 -0.337521 0.000000 0.000000 0.000000 -8.022162 36.757903 14.285633 22.762321 10.387773 1.243905 31.293219 -3.687812 -0.523731 24.483346 17.711956 13.999355 -97.437436 5.885338 7.603134 0.000000 0.000000 0.000000 -3.031902 39.761994 12.574943 1.309191 7.549892 -1.385048 -4.973548 12.239048 4.209957 1.565911 -7.409077 4.298116 0.000000 0.000000 0.000000 -3.827630 12.747605 3.828377 22.986368 14.134723 -8.117685 -3.817981 -13.243013 4.335338 0.000000 0.000000 0.000000 -5.131887 13.656931 3.449427 -0.840402 15.126555 -4.783066 -0.346499 6.007910 -1.768588 -41.766976 -3.358358 2.375287 -15.114836 -14.711898 5.154865 0.000000 0.000000 0.000000 -3.905874 13.321138 2.969356 -0.818501 5.980769 19.863469 -7.793419 1.542003 1.661866 16.076116 4.277024 12.123365 29.562336 22.039777 -4.866100 0.000000 0.000000 0.000000 
-15.355447 85.352997 3.074062 0.000000 0.000000 0.000000 -11.207457 38.347810 17.091425 -29.276213 0.840166 -24.068827 14.589207 -27.258984 0.725001 25.935186 -2.705534 5.144224 -11.691817 -0.664379 -1.198105 0.000000 0.000000 0.000000 -11.458773 39.483746 15.575932 22.412625 10.181024 0.051298 32.089509 -2.172773 0.820089 27.111162 18.605493 15.314780 -97.044687 10.887261 6.842693 0.000000 0.000000 0.000000 -4.985239 43.611622 12.613395 3.291256 7.373791 -1.191417 -4.673480 12.888195 3.812789 3.972021 -8.289743 5.064146 0.000000 0.000000 0.000000 -3.286683 13.185941 3.501548 17.892946 18.061969 -10.772764 -9.494847 -12.065100 1.615716 0.000000 0.000000 0.000000 -5.197398 14.207108 3.167865 -0.904338 16.073646 -4.474738 -3.012510 3.903809 -2.502332 -46.403031 8.432335 8.347025 -23.167450 -18.599466 1.335171 0.000000 0.000000 0.000000 -3.473741 13.780483 2.158556 0.150167 8.249478 17.112564 -9.931763 0.276030 3.437574 13.981080 4.673348 6.887534 26.897939 22.069724 -2.645197 0.000000 0.000000 0.000000 
-16.706038 86.459641 2.246967 0.000000 0.000000 0.000000 -12.959121 39.436976 17.421714 -29.280249 0.656787 -24.712813 15.239330 -26.984197 2.598925 27.582582 -3.499615 3.835074 -13.328563 -0.671348 -1.491440 0.000000 0.000000 0.000000 -14.797791 40.688578 16.983489 20.855069 10.903819 -1.592561 34.955378 -0.381275 1.721965 29.929384 18.877135 16.833961 -96.890379 16.257056 5.427070 0.000000 0.000000 0.000000 -7.860821 45.540792 13.059696 5.883599 6.732434 -1.178510 -4.207784 13.023097 3.488883 4.778143 -8.861929 4.292562 0.000000 0.000000 0.000000 -2.597118 13.177849 3.328379 13.103985 22.562625 -12.359677 -14.635704 -7.948519 -0.685564 0.000000 0.000000 0.000000 -5.182076 14.259524 2.946352 -0.806223 16.017565 -5.195961 -4.820654 1.602695 -2.746856 -52.059999 21.386962 13.758205 -28.259793 -23.181317 -2.229207 0.000000 0.000000 0.000000 -3.074234 13.713024 1.648209 1.260210 10.408204 14.927769 -11.756652 -1.360320 3.892749 11.548211 6.667246 2.651002 22.846780 21.537986 0.446313 0.000000 0.000000 0.000000 
